<?xml version="1.0" standalone="no"?>
<!DOCTYPE svg PUBLIC "-//W3C//DTD SVG 20010904//EN"
 "http://www.w3.org/TR/2001/REC-SVG-20010904/DTD/svg10.dtd">
<svg version="1.0" xmlns="http://www.w3.org/2000/svg"
 width="640.000000pt" height="640.000000pt" viewBox="0 0 640.000000 640.000000"
 preserveAspectRatio="xMidYMid meet">
<metadata>
Created by potrace 1.14, written by Peter Selinger 2001-2017
</metadata>
<g transform="translate(0.000000,640.000000) scale(0.100000,-0.100000)"
fill="#000000" stroke="none">
<path d="M3514 5741 c-30 -18 -68 -94 -77 -149 -1 -10 -6 -23 -10 -29 -5 -7
-6 -13 -4 -13 3 0 -2 -21 -10 -47 -26 -85 -65 -218 -68 -233 -2 -8 -4 -15 -5
-15 -1 0 -3 -7 -5 -15 -1 -8 -13 -48 -25 -89 -12 -41 -23 -81 -26 -90 -2 -9
-17 -62 -34 -118 -16 -57 -44 -149 -60 -205 -17 -57 -32 -110 -34 -118 -2 -8
-34 -118 -71 -245 -37 -126 -86 -299 -111 -383 -24 -85 -46 -157 -48 -161 -3
-4 -7 -18 -10 -32 -8 -40 -13 -57 -66 -234 -28 -93 -53 -178 -55 -189 -2 -10
-12 -44 -21 -75 -10 -31 -18 -58 -19 -61 -1 -3 -7 -25 -14 -50 -7 -25 -15 -52
-17 -60 -1 -8 -12 -46 -24 -85 -12 -38 -33 -110 -46 -160 -14 -49 -29 -99 -33
-110 -10 -22 -36 -117 -34 -125 0 -3 -4 -16 -9 -30 -5 -14 -12 -36 -15 -50 -2
-13 -9 -30 -15 -37 -6 -7 -8 -13 -4 -13 3 0 1 -12 -5 -27 -6 -16 -13 -37 -15
-48 -4 -19 -28 -104 -44 -155 -4 -14 -15 -50 -24 -80 -8 -30 -47 -165 -86
-300 -39 -135 -89 -308 -111 -385 -22 -77 -42 -146 -44 -153 -3 -7 -5 -14 -5
-17 -1 -3 -6 -19 -11 -37 -24 -78 -101 -345 -105 -366 -7 -37 17 -91 51 -111
16 -11 73 -31 125 -45 133 -38 231 -66 260 -77 14 -5 36 -12 50 -15 39 -8 55
-12 58 -14 2 -3 4 -3 47 -14 17 -5 51 -15 76 -23 85 -27 147 -1 173 70 9 23
50 159 91 302 73 250 80 274 89 313 3 9 14 46 25 81 12 35 23 74 26 85 5 25
13 51 105 366 74 252 117 403 124 431 3 9 21 72 41 140 21 68 38 129 39 134 1
6 10 37 20 70 10 33 20 67 22 75 2 8 12 44 23 80 18 60 138 471 161 550 5 19
24 82 41 140 17 58 35 123 40 145 5 22 12 47 16 55 8 19 9 22 28 95 9 33 17
65 19 70 2 6 4 12 4 15 0 3 6 19 12 35 7 17 14 39 16 50 4 19 28 104 44 155 4
14 15 50 24 80 36 125 159 553 192 665 19 66 42 145 50 175 9 30 23 76 31 102
8 25 16 59 19 74 3 16 10 34 16 41 6 8 8 16 5 19 -3 3 1 22 10 42 8 20 16 43
18 51 2 9 8 34 13 56 25 95 -7 142 -117 175 -199 58 -249 73 -276 80 -16 5
-70 20 -120 35 -148 43 -158 46 -200 51 -29 3 -49 -1 -71 -15z"/>
<path d="M1517 4662 c-17 -7 -99 -78 -181 -157 -61 -59 -218 -207 -335 -315
-56 -52 -124 -115 -150 -140 -26 -25 -108 -101 -181 -170 -131 -123 -205 -192
-325 -305 -33 -31 -109 -102 -169 -158 -178 -166 -182 -171 -172 -227 2 -14 5
-30 5 -36 1 -13 93 -103 311 -305 19 -18 71 -67 115 -108 45 -42 139 -130 209
-196 71 -66 150 -140 176 -165 26 -25 96 -90 155 -145 59 -55 129 -120 154
-145 43 -41 196 -184 324 -302 53 -50 96 -66 143 -54 27 7 43 22 189 178 44
47 130 138 190 202 118 125 144 162 140 198 -1 13 -3 30 -4 39 -1 17 -42 61
-114 122 -27 23 -59 51 -71 62 -12 11 -55 49 -96 85 -41 36 -84 74 -96 85 -12
11 -45 40 -74 65 -29 25 -62 54 -74 65 -13 11 -49 43 -82 72 -32 28 -68 60
-80 70 -39 34 -157 138 -193 170 -20 18 -39 33 -43 33 -5 0 -8 9 -8 20 0 11 3
20 8 20 7 0 49 35 135 115 27 25 50 45 52 45 3 0 17 12 33 28 28 26 102 92
212 187 30 26 60 52 65 59 6 6 39 36 75 66 35 30 72 62 80 70 9 8 47 42 85 75
38 33 80 71 94 84 14 13 33 28 41 35 34 25 57 71 55 109 -3 40 -23 70 -106
157 -28 30 -105 111 -169 180 -65 69 -137 146 -161 171 -24 26 -54 52 -66 58
-24 12 -68 13 -96 3z"/>
<path d="M4790 4663 c-16 -6 -74 -65 -235 -237 -55 -59 -135 -144 -177 -189
-43 -45 -81 -93 -86 -107 -7 -22 -8 -34 -3 -84 1 -16 123 -128 374 -346 22
-19 48 -42 57 -50 9 -8 70 -62 135 -120 66 -58 122 -107 125 -110 3 -3 60 -54
127 -113 l122 -106 -77 -68 c-42 -37 -92 -81 -110 -98 -19 -16 -44 -39 -56
-50 -12 -11 -46 -40 -75 -65 -29 -25 -65 -56 -80 -70 -15 -14 -58 -52 -96 -85
-37 -33 -75 -67 -85 -75 -9 -8 -45 -40 -80 -70 -34 -30 -79 -69 -99 -87 -20
-18 -66 -58 -102 -90 -71 -62 -87 -90 -83 -141 3 -37 24 -68 116 -163 35 -37
110 -117 168 -179 217 -233 214 -230 272 -230 43 0 65 16 229 171 74 70 150
142 170 160 52 49 263 246 319 299 26 25 103 97 170 160 68 63 142 132 164
153 186 175 303 284 412 387 75 70 94 98 94 139 0 40 -22 74 -85 133 -32 29
-79 73 -105 98 -40 38 -197 186 -314 295 -18 17 -88 82 -156 145 -67 63 -151
142 -186 175 -34 33 -108 103 -164 155 -57 52 -124 115 -150 140 -26 25 -101
95 -165 155 -65 61 -125 117 -133 125 -44 44 -104 61 -152 43z"/>
</g>
</svg>
