<svg width="512" height="512" viewBox="0 0 512 512" fill="none" xmlns="http://www.w3.org/2000/svg">
<rect width="512" height="512" rx="60" fill="#0F7870"/>
<path d="M54.84 326.972V300.472L139.216 264.432V273.972L54.84 237.932V211.432L152.36 253.196V285.208L54.84 326.972Z" fill="#9FC9C6"/>
<path d="M230.717 334.392C218.563 334.392 208.245 331.353 199.765 325.276C191.427 319.199 184.996 310.365 180.473 298.776C176.092 287.045 173.901 272.771 173.901 255.952C173.901 239.133 176.092 224.859 180.473 213.128C184.996 201.397 191.427 192.493 199.765 186.416C208.245 180.197 218.563 177.088 230.717 177.088C242.872 177.088 253.189 180.197 261.669 186.416C270.149 192.493 276.58 201.397 280.961 213.128C285.343 224.859 287.533 239.133 287.533 255.952C287.533 272.771 285.343 287.045 280.961 298.776C276.58 310.365 270.149 319.199 261.669 325.276C253.189 331.353 242.872 334.392 230.717 334.392ZM230.717 307.68C236.371 307.68 241.105 305.913 244.921 302.38C248.737 298.705 251.635 293.052 253.613 285.42C255.592 277.788 256.581 267.965 256.581 255.952C256.581 243.939 255.592 234.116 253.613 226.484C251.635 218.711 248.737 212.987 244.921 209.312C241.105 205.637 236.371 203.8 230.717 203.8C225.205 203.8 220.471 205.637 216.513 209.312C212.697 212.987 209.8 218.711 207.821 226.484C205.843 234.116 204.853 243.939 204.853 255.952C204.853 267.965 205.843 277.788 207.821 285.42C209.8 293.052 212.697 298.705 216.513 302.38C220.471 305.913 225.205 307.68 230.717 307.68ZM298.262 331L339.39 180.48H376.278L417.406 331H387.09L357.834 216.944L328.578 331H298.262ZM326.034 298.988L333.666 272.7H382.002L389.634 298.988H326.034Z" fill="white"/>
</svg>
