<svg width="472" height="511" viewBox="0 0 472 511" fill="none" xmlns="http://www.w3.org/2000/svg">
<rect width="472" height="511" rx="60" fill="#0F7870"/>
<path d="M61.7 326.01V299.76L145.28 264.06V273.51L61.7 237.81V211.56L158.3 252.93V284.64L61.7 326.01Z" fill="#9FC9C6"/>
<path d="M235.918 333.36C223.878 333.36 213.658 330.35 205.258 324.33C196.998 318.31 190.628 309.56 186.148 298.08C181.808 286.46 179.638 272.32 179.638 255.66C179.638 239 181.808 224.86 186.148 213.24C190.628 201.62 196.998 192.8 205.258 186.78C213.658 180.62 223.878 177.54 235.918 177.54C247.958 177.54 258.178 180.62 266.578 186.78C274.978 192.8 281.348 201.62 285.688 213.24C290.028 224.86 292.198 239 292.198 255.66C292.198 272.32 290.028 286.46 285.688 298.08C281.348 309.56 274.978 318.31 266.578 324.33C258.178 330.35 247.958 333.36 235.918 333.36ZM235.918 306.9C241.518 306.9 246.208 305.15 249.988 301.65C253.768 298.01 256.638 292.41 258.598 284.85C260.558 277.29 261.538 267.56 261.538 255.66C261.538 243.76 260.558 234.03 258.598 226.47C256.638 218.77 253.768 213.1 249.988 209.46C246.208 205.82 241.518 204 235.918 204C230.458 204 225.768 205.82 221.848 209.46C218.068 213.1 215.198 218.77 213.238 226.47C211.278 234.03 210.298 243.76 210.298 255.66C210.298 267.56 211.278 277.29 213.238 284.85C215.198 292.41 218.068 298.01 221.848 301.65C225.768 305.15 230.458 306.9 235.918 306.9ZM302.826 330L343.566 180.9H380.106L420.846 330H390.816L361.836 217.02L332.856 330H302.826ZM330.336 298.29L337.896 272.25H385.776L393.336 298.29H330.336Z" fill="white"/>
</svg>
